<?xml version="1.0" encoding="utf-8"?>
<!-- Generator: Adobe Illustrator 16.0.3, SVG Export Plug-In . SVG Version: 6.00 Build 0)  -->
<!DOCTYPE svg PUBLIC "-//W3C//DTD SVG 1.1//EN" "http://www.w3.org/Graphics/SVG/1.1/DTD/svg11.dtd">
<svg version="1.1" id="Capa_1" fill="#6aa84f" xmlns="http://www.w3.org/2000/svg" xmlns:xlink="http://www.w3.org/1999/xlink" x="0px" y="0px"
	 width="595.279px" height="680.32px" viewBox="0 80.785 595.279 680.32" enable-background="new 0 80.785 595.279 680.32"
	 xml:space="preserve">
<path d="M179.647,104.291c7.176-14.406,21.925-23.505,38.003-23.505h159.981c16.077,0,30.826,9.099,38.002,23.505l9.566,19.014
	H552.76c23.519,0,42.52,19.041,42.52,42.521c0,23.479-19.001,42.52-42.52,42.52H42.52c-23.479,0-42.52-19.041-42.52-42.52
	c0-23.479,19.041-42.521,42.52-42.521H170.08L179.647,104.291z M41.324,250.865H552.76v425.2c0,46.904-38.135,85.04-85.04,85.04
	H126.365c-45.775,0-85.04-38.136-85.04-85.04V250.865z M147.624,357.165v297.64c0,11.693,10.763,21.261,21.26,21.261
	c12.889,0,21.26-9.567,21.26-21.261v-297.64c0-11.693-8.371-21.26-21.26-21.26C158.387,335.905,147.624,345.472,147.624,357.165z
	 M275.184,357.165v297.64c0,11.693,10.764,21.261,21.261,21.261c12.889,0,22.455-9.567,22.455-21.261v-297.64
	c0-11.693-9.566-21.26-22.455-21.26C285.948,335.905,275.184,345.472,275.184,357.165z M403.94,357.165v297.64
	c0,11.693,9.567,21.261,21.26,21.261c11.693,0,21.261-9.567,21.261-21.261v-297.64c0-11.693-9.567-21.26-21.261-21.26
	C413.507,335.905,403.94,345.472,403.94,357.165z"/>
</svg>
