<?xml version="1.0" encoding="utf-8"?>
<!-- Generator: Adobe Illustrator 16.0.3, SVG Export Plug-In . SVG Version: 6.00 Build 0)  -->
<!DOCTYPE svg PUBLIC "-//W3C//DTD SVG 1.1//EN" "http://www.w3.org/Graphics/SVG/1.1/DTD/svg11.dtd">
<svg version="1.1" id="Capa_1" xmlns="http://www.w3.org/2000/svg" xmlns:xlink="http://www.w3.org/1999/xlink" x="0px" y="0px"
	 width="595.255px" height="529.138px" viewBox="0 156.376 595.255 529.138" enable-background="new 0 156.376 595.255 529.138"
	 xml:space="preserve">
<path d="M528.931,453.603l0.724,165.459c0,2.894-0.207,5.581-0.517,8.371v16.742c0,22.84-18.499,41.339-41.339,41.339h-16.536
	c-1.137,0-2.273-0.93-3.41-0.103c-1.447-0.827-2.894,0.103-4.341,0.103h-58.391c-22.84,0-41.339-18.499-41.339-41.339v-90.945
	c0-18.292-14.779-33.071-33.071-33.071h-66.143c-18.292,0-33.07,14.779-33.07,33.071v90.945c0,22.84-18.5,41.339-41.339,41.339
	h-57.771c-1.551,0-3.101-0.103-4.65-0.206c-1.24,0.104-2.48,0.206-3.721,0.206h-16.536c-22.829,0-41.339-18.499-41.339-41.339
	V528.426c0-0.93,0.031-1.963,0.094-2.894v-71.93H33.122C14.49,453.603,0,439.031,0,420.429c0-9.302,3.104-17.569,10.345-24.804
	L275.317,164.66c7.234-7.249,15.503-8.284,22.737-8.284c7.233,0,15.501,2.071,21.806,7.249l110.064,96.822v-37.928
	c0-18.262,14.779-33.071,33.071-33.071h33.071c18.292,0,33.071,14.81,33.071,33.071v125.05l54.567,48.057
	c8.268,7.234,12.505,15.502,11.368,24.804c0,18.603-15.502,33.174-33.071,33.174H528.931z"/>
</svg>
