<?xml version="1.0" encoding="utf-8"?>
<!-- Generator: Adobe Illustrator 16.0.3, SVG Export Plug-In . SVG Version: 6.00 Build 0)  -->
<!DOCTYPE svg PUBLIC "-//W3C//DTD SVG 1.1//EN" "http://www.w3.org/Graphics/SVG/1.1/DTD/svg11.dtd">
<svg version="1.1" id="Capa_1" xmlns="http://www.w3.org/2000/svg" xmlns:xlink="http://www.w3.org/1999/xlink" x="0px" y="0px"
	 width="595.279px" height="595.147px" fill="#6aa84f" viewBox="0 123.438 595.279 595.147" enable-background="new 0 123.438 595.279 595.147"
	 xml:space="preserve">
<path d="M595.28,677.394L400.219,479.676c26.575-37.072,42.388-82.648,42.388-131.812c0-123.707-99.258-224.426-221.237-224.426
	C99.258,123.305,0,224.024,0,347.731s99.258,224.426,221.236,224.426c52.885,0,101.384-18.868,139.519-50.36l193.998,196.788
	L595.28,677.394z M221.237,520.336c-93.81,0-170.213-77.467-170.213-172.605c0-95.139,76.403-172.605,170.213-172.605
	s170.213,77.466,170.213,172.605C391.449,442.869,315.179,520.336,221.237,520.336z"/>
</svg>
